<?xml version="1.0" encoding="utf-8"?>
<!-- Generator: Adobe Illustrator 19.1.0, SVG Export Plug-In . SVG Version: 6.00 Build 0)  -->
<svg version="1.1" id="Layer_1" xmlns="http://www.w3.org/2000/svg" xmlns:xlink="http://www.w3.org/1999/xlink" x="0px" y="0px"
	 viewBox="-332.8 1.3 64 64" style="enable-background:new -332.8 1.3 64 64;" xml:space="preserve">
<style type="text/css">
	.st0{fill:url(#SVGID_1_);}
	.st1{fill:url(#SVGID_2_);}
	.st2{fill:url(#SVGID_3_);}
	.st3{fill:url(#SVGID_4_);}
	.st4{fill:url(#SVGID_5_);}
</style>
<g>
	
		<linearGradient id="SVGID_1_" gradientUnits="userSpaceOnUse" x1="-300.75" y1="-36.25" x2="-300.75" y2="20.6124" gradientTransform="matrix(1 0 0 -1 0 29)">
		<stop  offset="0" style="stop-color:#53FFFF"/>
		<stop  offset="1.619560e-002" style="stop-color:#5DFFFF"/>
		<stop  offset="7.564002e-002" style="stop-color:#7CFFFF"/>
		<stop  offset="0.143" style="stop-color:#98FFFF"/>
		<stop  offset="0.2191" style="stop-color:#AEFFFF"/>
		<stop  offset="0.3079" style="stop-color:#BFFFFF"/>
		<stop  offset="0.4178" style="stop-color:#CAFFFF"/>
		<stop  offset="0.572" style="stop-color:#D1FFFF"/>
		<stop  offset="1" style="stop-color:#D3FFFF"/>
	</linearGradient>
	<path class="st0" d="M-282.5,56v6.5c0,1.5-1.2,2.7-2.7,2.7h-30.7c-1.5,0-2.7-1.2-2.7-2.7V56c0-1.5,1-2.7,2.7-2.7
		c-1,0-1.7-0.7-1.7-1.7v-4.8c0-1,0.7-1.7,1.7-1.7c-1,0-1.7-0.7-1.7-1.7v-4.8c0-1,0.7-1.7,1.7-1.7c-1,0-1.7-0.7-1.7-1.7v-4.6
		c0-0.2,0-0.2,0-0.5c-0.7-0.5-1.5-1.7-1.5-2.7c0-4.4,1.7-8.2,4.6-11.1c1.7-1.7,3.6-2.9,5.8-3.6c-0.5-0.2-1-0.7-1-1.5
		c0-0.2,0-0.5,0.2-0.7c-0.2-0.2-0.2-0.5-0.2-0.7c0-1,0.7-1.7,1.7-1.7h14.3c1,0,1.7,0.7,1.7,1.7c0,0.2,0,0.5-0.2,0.7
		c0.2,0.2,0.2,0.5,0.2,0.7c0,0.5-0.5,1.2-1,1.5c6.1,2.2,10.4,8,10.4,14.8c0,1-0.5,1.7-1,2.2c0,0-0.2,0.2-0.5,0.2c0,0.2,0,0.2,0,0.5
		v4.8c0,1-0.7,1.7-1.7,1.7c1,0,1.7,0.7,1.7,1.7v4.8c0,1-0.7,1.7-1.7,1.7c1,0,1.7,0.7,1.7,1.7v4.8c0,1-0.7,1.7-1.7,1.7
		C-283.7,53.4-282.5,54.6-282.5,56z"/>
	
		<linearGradient id="SVGID_2_" gradientUnits="userSpaceOnUse" x1="-300.6289" y1="-34.4731" x2="-300.6289" y2="2.8404" gradientTransform="matrix(1 0 0 -1 0 29)">
		<stop  offset="0" style="stop-color:#B8672A"/>
		<stop  offset="1" style="stop-color:#E9C800"/>
	</linearGradient>
	<path class="st1" d="M-284.4,55.1v5.8c0,1.2-1,2.4-2.4,2.4h-27.6c-1.2,0-2.4-1-2.4-2.4v-5.8c0-1.2,1-2.2,2.2-2.4
		c-0.7,0-1.5-0.7-1.5-1.5v-4.4c0-0.7,0.7-1.5,1.5-1.5c-0.7,0-1.5-0.7-1.5-1.5v-4.4c0-0.7,0.7-1.5,1.5-1.5c-0.7,0-1.5-0.7-1.5-1.5
		v-4.4v-0.2c0-0.2,0-0.2,0-0.5c0-0.5,0.5-1,1-1.2c0-0.5,0.7-1,1.2-1c0.2,0,0.5,0,0.5,0c0-0.5,0.5-0.7,0.7-1c0-0.5,0.5-1,1.2-1
		c0.2,0,0.5,0,0.5,0c0-0.5,0.7-1,1.2-1c0.5,0,0.7,0.2,1,0.5c0,0,0,0,0.2,0h0.2c0.2-0.2,0.5-0.5,1-0.5c0.2,0,0.5,0,0.7,0.2l0,0
		c0-0.7,0.5-1.2,1.2-1.2s1.2,0.5,1.2,1c0.5,0,1,0.5,1,1c0.5,0,1,0.5,1.2,1.2c0.2-0.5,0.5-0.5,1-0.5c0.7,0,1.2,0.5,1.2,1
		c0,0,0,0,0.2,0l0,0c0-0.7,0.5-1.2,1.2-1.2l0,0c0-0.7,0.5-1.2,1.2-1.2s1.2,0.5,1.2,1.2c0.5,0,1,0.5,1,0.7c0.5,0.2,0.7,0.5,1,1.2
		c0-0.5,0.5-1,1.2-1s1.2,0.5,1.2,1.2l0,0c0-0.5,0.5-1,1.2-1c0.2,0,0.5,0,0.5,0c0.2-0.5,0.5-0.5,1-0.5c0.7,0,1.2,0.5,1.2,1.2v0.2
		c0.5,0,1,0.5,1,1h0.2c0,0,0,0-0.2,0.2l0,0c0,0.2,0,0.5,0,0.5V36c0,0.7-0.7,1.5-1.5,1.5c0.7,0,1.5,0.7,1.5,1.5v4.4
		c0,0.7-0.7,1.5-1.5,1.5c0.7,0,1.5,0.7,1.5,1.5v4.4c0,0.7-0.7,1.5-1.5,1.5C-285.4,52.9-284.4,53.9-284.4,55.1z"/>
	
		<linearGradient id="SVGID_3_" gradientUnits="userSpaceOnUse" x1="-300.3868" y1="17.4499" x2="-300.3868" y2="22.0709" gradientTransform="matrix(1 0 0 -1 0 29)">
		<stop  offset="0" style="stop-color:#000000"/>
		<stop  offset="1" style="stop-color:#001239"/>
	</linearGradient>
	<path class="st2" d="M-291.7,11.5h-17.4c-0.7,0-1.5-0.5-1.5-1.5V8.4c0-0.7,0.5-1.5,1.5-1.5h17.4c0.7,0,1.5,0.5,1.5,1.5v1.9
		C-290.5,11-290.9,11.5-291.7,11.5z"/>
	
		<linearGradient id="SVGID_4_" gradientUnits="userSpaceOnUse" x1="-300.4488" y1="-5.017" x2="-300.4486" y2="-5.017" gradientTransform="matrix(1 0 0 -1 0 29)">
		<stop  offset="0" style="stop-color:#00C7FF"/>
		<stop  offset="0.2419" style="stop-color:#00FFFF"/>
		<stop  offset="1" style="stop-color:#D6FFFF"/>
	</linearGradient>
	<path class="st3" d="M-300.4,34L-300.4,34L-300.4,34C-300.6,34-300.4,34-300.4,34z"/>
	
		<linearGradient id="SVGID_5_" gradientUnits="userSpaceOnUse" x1="-300.5038" y1="-5.017" x2="-300.5035" y2="-5.017" gradientTransform="matrix(1 0 0 -1 0 29)">
		<stop  offset="0" style="stop-color:#00C7FF"/>
		<stop  offset="0.2419" style="stop-color:#00FFFF"/>
		<stop  offset="1" style="stop-color:#D6FFFF"/>
	</linearGradient>
	<path class="st4" d="M-300.6,34C-300.6,34-300.4,34-300.6,34L-300.6,34L-300.6,34z"/>
</g>
</svg>
