<?xml version="1.0" encoding="utf-8"?>
<!-- Generator: Adobe Illustrator 19.1.0, SVG Export Plug-In . SVG Version: 6.00 Build 0)  -->
<svg version="1.1" id="Layer_1" xmlns="http://www.w3.org/2000/svg" xmlns:xlink="http://www.w3.org/1999/xlink" x="0px" y="0px"
	 viewBox="0 0 24 24" style="enable-background:new 0 0 24 24;" xml:space="preserve">
<style type="text/css">
	.st0{fill:#42BBFF;}
</style>
<g>
	<path class="st0" d="M3.7,24H2.2c-0.3,0-0.5-0.2-0.5-0.5v-23C1.7,0.2,2,0,2.2,0h1.5C4,0,4.2,0.2,4.2,0.5v23C4.2,23.8,4,24,3.7,24z"
		/>
	<path class="st0" d="M12.8,24h-1.5c-0.3,0-0.5-0.2-0.5-0.5v-23C10.8,0.2,11,0,11.3,0h1.5c0.3,0,0.5,0.2,0.5,0.5v23
		C13.3,23.8,13.1,24,12.8,24z"/>
	<path class="st0" d="M22,24h-1.5c-0.3,0-0.5-0.2-0.5-0.5v-23C20,0.2,20.2,0,20.5,0H22c0.3,0,0.5,0.2,0.5,0.5v23
		C22.5,23.8,22.3,24,22,24z"/>
	<path class="st0" d="M4.4,10.3H1.3c-0.6,0-1.1-0.5-1.1-1.1V6.1C0.2,5.5,0.7,5,1.3,5h3.1C5,5,5.5,5.5,5.5,6.1v3.1
		C5.5,9.8,5,10.3,4.4,10.3z"/>
	<path class="st0" d="M13.6,18.5h-3.1c-0.6,0-1.1-0.5-1.1-1.1v-3.1c0-0.6,0.5-1.1,1.1-1.1h3.1c0.6,0,1.1,0.5,1.1,1.1v3.1
		C14.7,18,14.2,18.5,13.6,18.5z"/>
	<path class="st0" d="M22.8,7.1h-3.1c-0.6,0-1.1-0.5-1.1-1.1V2.9c0-0.6,0.5-1.1,1.1-1.1h3.1c0.6,0,1.1,0.5,1.1,1.1V6
		C23.9,6.6,23.4,7.1,22.8,7.1z"/>
</g>
</svg>
