<?xml version="1.0" encoding="utf-8"?>
<!-- Generator: Adobe Illustrator 19.1.0, SVG Export Plug-In . SVG Version: 6.00 Build 0)  -->
<svg version="1.1" id="Layer_1" xmlns="http://www.w3.org/2000/svg" xmlns:xlink="http://www.w3.org/1999/xlink" x="0px" y="0px"
	 viewBox="0 0 24 24" style="enable-background:new 0 0 24 24;" xml:space="preserve">
<style type="text/css">
	.st0{fill:none;stroke:#42BBFF;stroke-width:2;stroke-miterlimit:10;}
	.st1{fill:#42BBFF;}
	.st2{fill:#FFFFFF;}
</style>
<g>
	<path class="st0" d="M22.5,20H1.7c-0.3,0-0.5-0.2-0.5-0.5V3.7c0-0.3,0.2-0.5,0.5-0.5h20.8c0.3,0,0.5,0.2,0.5,0.5v16
		C22.9,19.8,22.8,20,22.5,20z"/>
	<path class="st1" d="M23.2,20.3H1.3c-0.1,0-0.1,0-0.1-0.1v-3.5c0-0.1,0-0.1,0.1-0.1h21.9c0.1,0,0.1,0,0.1,0.1L23.2,20.3
		C23.3,20.2,23.3,20.3,23.2,20.3z"/>
	<circle class="st2" cx="12.2" cy="18.5" r="0.6"/>
	<polygon class="st1" points="14.1,22.9 10.2,22.9 10.4,19.9 13.9,19.9 	"/>
	<path class="st1" d="M15.3,23.3H9c-0.2,0-0.4-0.2-0.4-0.4l0,0c0-0.2,0.2-0.4,0.4-0.4h6.3c0.2,0,0.4,0.2,0.4,0.4l0,0
		C15.6,23.2,15.4,23.3,15.3,23.3z"/>
</g>
</svg>
