<?xml version="1.0" encoding="utf-8"?>
<!-- Generator: Adobe Illustrator 19.1.0, SVG Export Plug-In . SVG Version: 6.00 Build 0)  -->
<svg version="1.1" id="Layer_1" xmlns="http://www.w3.org/2000/svg" xmlns:xlink="http://www.w3.org/1999/xlink" x="0px" y="0px"
	 viewBox="-320.9 0.5 64 64" style="enable-background:new -320.9 0.5 64 64;" xml:space="preserve">
<style type="text/css">
	.st0{fill:#45A7AE;}
	.st1{opacity:0.1;fill:#231F20;enable-background:new    ;}
	.st2{fill:url(#SVGID_1_);}
	.st3{fill:#1D5B4F;}
	.st4{opacity:0.1;}
	.st5{opacity:0.15;fill:#231F20;enable-background:new    ;}
</style>
<g>
	<path class="st0" d="M-311.8,43.4c0,0.3-0.3,0.6-0.3,0.6c-0.3,0.6-0.3,0.9-0.6,1.4c-0.6,1.4-1.4,3.5-3.2,3.2c-0.9,0-2-0.6-2.6-1.2
		l-0.3-0.3c-0.6-0.6-0.6-1.2,0-1.7c1.2-1.2,2.9-1.7,4.3-2.3c0.6-0.3,1.4-0.9,2.3-0.9l0,0C-311.8,42.5-311.8,43.1-311.8,43.4z"/>
	<path class="st1" d="M-311.8,43.4c-0.9,0-1.4,0.3-2.3,0.9c-1.4,0.9-2.9,1.4-4.3,2.3c-0.3,0.3-0.6,0.6-0.6,0.6
		c-0.6-0.6-0.6-1.2,0-1.7c1.2-1.2,2.9-1.7,4.3-2.3c0.6-0.3,1.4-0.9,2.3-0.9l0,0C-311.8,42.5-311.8,43.1-311.8,43.4z"/>
	
		<linearGradient id="SVGID_1_" gradientUnits="userSpaceOnUse" x1="-316.582" y1="-9.7462" x2="-256.7505" y2="-9.7462" gradientTransform="matrix(1 0 0 -1 0 26)">
		<stop  offset="0" style="stop-color:#45A7AE"/>
		<stop  offset="0.5677" style="stop-color:#88D5AA"/>
		<stop  offset="0.9946" style="stop-color:#D4EFA3"/>
	</linearGradient>
	<path class="st2" d="M-256.9,22.7L-256.9,22.7c-0.9,2-0.3,6.3-8.1,8.1c-0.9,0.3-1.2,0.9-1.2,1.4c-0.3,0.6-0.9,15.8-12.4,22.4
		c-1.2,0.6-2.3,1.2-3.7,1.7c-4.6,1.4-10.1,2-17.3,0.9c-8.9-2.3-13.8-9.8-13.8-9.8l0,0c-1.2-1.7-2-3.7-2.6-5.8
		c-0.6-1.7-0.9-3.5-0.9-5.2c0-9.2,6.6-17.3,15.2-19.3c1.4-0.3,2.9-0.6,4.6-0.6c8.1,0,15,4.9,17.8,11.5c0,0,3.2,6,7.2,4.3
		c0.3,0,0.6-0.3,0.9-0.6c0.6-0.6,1.2-1.4,1.2-2c0.3-0.6,0.3-0.9-0.3-1.2c-0.3-0.3-1.2-0.6-1.7-0.9c-0.3-0.3-0.9-0.3-1.2-0.6
		c-0.6-0.6-1.2-1.2-1.4-1.7c-1.4-2-2-4-1.7-6.6c0.3-1.7,1.2-3.7,2-5.2l0,0c0.9-0.3,1.2,0.3,2,0.6c2.3,1.7,6.6,6.3,5.5,10.4l0,0
		c0.6-0.9,1.4-1.7,2.6-2.6c0.6-0.3,1.4-0.6,2.3-0.6C-260.3,21.8-258.9,22.1-256.9,22.7z"/>
	<g>
		<path class="st3" d="M-295.1,33.9L-295.1,33.9c-0.6,0-0.6-0.3-0.6-0.9c0.3-1.4-0.6-2.9-2-3.2c-0.9-0.3-1.4,0-2,0.3
			c-0.6,0.3-1.2,1.2-1.2,1.7c0,0.3-0.3,0.6-0.9,0.6c-0.3,0-0.6-0.3-0.6-0.9c0.3-1.2,0.9-2,1.7-2.6c0.9-0.6,2-0.9,3.2-0.6
			c2,0.6,3.5,2.6,3.2,4.9C-294.5,33.6-294.8,33.9-295.1,33.9z"/>
	</g>
	<path class="st0" d="M-280.1,46.6L-280.1,46.6C-280.4,46.6-280.4,46.6-280.1,46.6c-0.6,0.6-1.7,1.2-2.6,1.2c-2,0.3-2.9-1.4-3.5-2.9
		c-0.3-0.6-0.9-2.3-0.6-2.9c0-0.3,0.3-0.3,0.3-0.3l0,0h0.3l0,0c0.9,0,2,0.6,2.3,0.9c1.4,0.9,2.3,1.2,3.7,2.3
		C-279.3,45.4-279.6,46-280.1,46.6z"/>
	<path class="st0" d="M-286.2,41.7L-286.2,41.7L-286.2,41.7L-286.2,41.7z"/>
	<path class="st1" d="M-280.1,46.6C-280.4,46.6-280.4,46.6-280.1,46.6c-0.6,0.6-1.7,1.2-2.6,1.2c-2,0.3-2.9-1.4-3.5-2.9
		c-0.3-0.6-0.9-2.3-0.6-2.9c0-0.3,0.3-0.3,0.3-0.3l0,0c0.3,0,0.3,0,0.3,0c0,0.9,0.6,2,0.9,2.6c0.6,1.4,1.4,3.2,3.5,2.9
		C-281.3,47.1-280.7,46.8-280.1,46.6z"/>
	<g class="st4">
		<path class="st0" d="M-310.1,50.9l-0.3-0.3l0,0c-0.3-0.3-0.6-0.6-0.6-0.6c-0.3-0.3-0.6-0.9-0.9-1.2l0,0l0,0
			c-1.4-3.5-2-7.5-2.3-9.8c0-0.3,0.3-0.3,0.3-0.6c0-0.3,0.3-0.3,0.3-0.6C-313.2,40.8-312.7,46.6-310.1,50.9z"/>
	</g>
	<g>
		<path class="st3" d="M-307.5,30.4L-307.5,30.4c-0.6,0-0.6-0.3-0.6-0.9c0.3-1.4-0.6-2.9-2-3.2c-1.4-0.3-2.9,0.6-3.2,2
			c0,0.3-0.3,0.6-0.9,0.6c-0.3,0-0.6-0.3-0.6-0.9c0.6-2,2.6-3.5,4.6-3.2c2,0.6,3.5,2.6,3.2,4.6C-306.9,30.2-307.2,30.4-307.5,30.4z"
			/>
	</g>
	<path class="st5" d="M-256.9,22.7c-0.9,1.7-0.3,6.3-8.1,8.1c-0.9,0.3-1.2,0.9-1.2,1.4c0,0-0.3-1.7,1.7-2.3c1.2-0.6,3.7-1.4,4.9-2.6
		C-258.6,26.4-257.7,23-256.9,22.7z"/>
	<path class="st5" d="M-266.3,25c-0.6,1.4-0.6,0-0.6-0.6c-1.4-7.5-6.6-10.4-6.6-10.4l0,0c0.3,0,0.9,0.3,1.4,0.9
		C-269.5,16.4-265.2,21-266.3,25z"/>
</g>
</svg>
