<?xml version="1.0" encoding="utf-8"?>
<!-- Generator: Adobe Illustrator 19.1.0, SVG Export Plug-In . SVG Version: 6.00 Build 0)  -->
<svg version="1.1" id="Layer_1" xmlns="http://www.w3.org/2000/svg" xmlns:xlink="http://www.w3.org/1999/xlink" x="0px" y="0px"
	 viewBox="-287 0 64 64" style="enable-background:new -287 0 64 64;" xml:space="preserve">
<style type="text/css">
	.st0{fill:url(#SVGID_1_);}
	.st1{fill:url(#SVGID_2_);}
	.st2{fill:url(#SVGID_3_);}
	.st3{fill:url(#SVGID_4_);}
	.st4{fill:none;stroke:url(#SVGID_5_);stroke-miterlimit:10;}
	.st5{fill:url(#SVGID_6_);}
	.st6{fill:url(#SVGID_7_);}
</style>
<linearGradient id="SVGID_1_" gradientUnits="userSpaceOnUse" x1="-238.9885" y1="57.5551" x2="-238.9885" y2="48.3547" gradientTransform="matrix(1 0 0 1 0 -40)">
	<stop  offset="0" style="stop-color:#00B796"/>
	<stop  offset="1" style="stop-color:#FEFF76"/>
</linearGradient>
<path class="st0" d="M-251.9,14.3c-0.9,0.7-0.7,2,0.4,2.4c5.6,2,14.5-1.1,24.5-3.3c4.7-1.1-2.5-2.4-7.9-4.4
	C-240.7,6.7-248.4,11.7-251.9,14.3z"/>
<linearGradient id="SVGID_2_" gradientUnits="userSpaceOnUse" x1="1540.4884" y1="297.9638" x2="1540.4884" y2="286.8575" gradientTransform="matrix(-0.964 -0.2658 -0.2658 0.964 1298.6486 136.2541)">
	<stop  offset="0" style="stop-color:#00B796"/>
	<stop  offset="1" style="stop-color:#FEFF76"/>
</linearGradient>
<path class="st1" d="M-252.3,12.3c0.7,0.9,0.1,2.1-0.9,2.1c-5.9,0.4-20.9,0.3-22.6-9.7c-0.8-4.8,3.1-1.7,8.7-2.3
	C-261.1,1.9-255.1,8.9-252.3,12.3z"/>
<linearGradient id="SVGID_3_" gradientUnits="userSpaceOnUse" x1="-275.5257" y1="202.2187" x2="-275.5257" y2="198.7682" gradientTransform="matrix(0.9891 0.1471 -0.1471 0.9891 49.7317 -123.7277)">
	<stop  offset="0" style="stop-color:#00B796"/>
	<stop  offset="1" style="stop-color:#FEFF76"/>
</linearGradient>
<path class="st2" d="M-257.2,33.9c-0.4,0.3-0.4,0.7,0,0.9c2,1.1,7.3-0.3,9.5,0.1c1.7,0.3-0.8-1.1-2.7-2.1
	C-252.6,31.6-255.8,33.1-257.2,33.9z"/>
<linearGradient id="SVGID_4_" gradientUnits="userSpaceOnUse" x1="1352.0511" y1="-461.6711" x2="1352.0511" y2="-463.3163" gradientTransform="matrix(-0.8051 0.5931 0.5931 0.8051 1103.0175 -389.5689)">
	<stop  offset="0" style="stop-color:#00B796"/>
	<stop  offset="1" style="stop-color:#FEFF76"/>
</linearGradient>
<path class="st3" d="M-257.8,38.8c0.3,0,0.3,0.3,0.3,0.4c-0.7,0.9-3.1,1.6-4,2.1c-0.7,0.5,0.1-0.7,0.7-1.5
	C-260.3,39-258.6,38.8-257.8,38.8z"/>
<linearGradient id="SVGID_5_" gradientUnits="userSpaceOnUse" x1="-261.5258" y1="75.56" x2="-249.3696" y2="75.56" gradientTransform="matrix(1 0 0 1 0 -40)">
	<stop  offset="0" style="stop-color:#00B796"/>
	<stop  offset="1" style="stop-color:#FEFF76"/>
</linearGradient>
<path class="st4" d="M-261.4,60c0,0,5.1-1.9,4-21c-1.1-19.3,7.6-28,7.6-28"/>
<linearGradient id="SVGID_6_" gradientUnits="userSpaceOnUse" x1="1528.3501" y1="67.615" x2="1528.3501" y2="58.9318" gradientTransform="matrix(-1 0 0 1 1283.8223 -40)">
	<stop  offset="0" style="stop-color:#00B796"/>
	<stop  offset="1" style="stop-color:#FEFF76"/>
</linearGradient>
<path class="st5" d="M-234.5,24c0.4,0.4,0.3,1.1-0.3,1.2c-3.9,1.3-16.1,5.2-19.7-2.4c-1.6-3.5,2-1.9,6.1-3.5
	C-243.4,17.5-236.9,22.2-234.5,24z"/>
<linearGradient id="SVGID_7_" gradientUnits="userSpaceOnUse" x1="1548.9625" y1="68.1008" x2="1548.9625" y2="61.7614" gradientTransform="matrix(-1 0 0 1 1283.8223 -40)">
	<stop  offset="0" style="stop-color:#00B796"/>
	<stop  offset="1" style="stop-color:#FEFF76"/>
</linearGradient>
<path class="st6" d="M-256.8,26c0.4,0.3,0.3,1.3-0.1,1.1c-2.3-1.6-13.3,4.3-16.4-2c-1.3-2.8,1.6-1.6,5.1-2.9
	C-264.2,20.6-258.8,24.4-256.8,26z"/>
</svg>
