<?xml version="1.0" encoding="utf-8"?>
<!-- Generator: Adobe Illustrator 19.1.0, SVG Export Plug-In . SVG Version: 6.00 Build 0)  -->
<svg version="1.1" id="Layer_1" xmlns="http://www.w3.org/2000/svg" xmlns:xlink="http://www.w3.org/1999/xlink" x="0px" y="0px"
	 viewBox="-287 0 64 64" style="enable-background:new -287 0 64 64;" xml:space="preserve">
<style type="text/css">
	.st0{fill:url(#SVGID_1_);}
	.st1{fill:none;stroke:url(#SVGID_2_);stroke-miterlimit:10;}
	.st2{fill:none;stroke:#FFFFFF;stroke-linecap:round;stroke-miterlimit:10;}
</style>
<g>
	
		<linearGradient id="SVGID_1_" gradientUnits="userSpaceOnUse" x1="-255" y1="100.208" x2="-255" y2="42.7491" gradientTransform="matrix(1 0 0 1 0 -40)">
		<stop  offset="0.1075" style="stop-color:#60FDA2"/>
		<stop  offset="0.7957" style="stop-color:#55BEFF"/>
		<stop  offset="1" style="stop-color:#FFFFFF"/>
	</linearGradient>
	<path class="st0" d="M-248.5,53.6c0,3.6-2.9,6.5-6.5,6.5s-6.5-2.9-6.5-6.5c0-2.5,1.4-4.6,3.4-5.7V5.8c0-1.7,1.4-3.1,3.1-3.1
		c0.9,0,1.6,0.3,2.2,0.9c0.6,0.6,0.9,1.4,0.9,2.2v42.1C-249.8,49-248.5,51.2-248.5,53.6z"/>
	
		<linearGradient id="SVGID_2_" gradientUnits="userSpaceOnUse" x1="-264.9" y1="71.9333" x2="-245.1" y2="71.9333" gradientTransform="matrix(1 0 0 1 0 -40)">
		<stop  offset="0.1075" style="stop-color:#60FDA2"/>
		<stop  offset="0.7957" style="stop-color:#55BEFF"/>
	</linearGradient>
	<path class="st1" d="M-245.6,53.9c0,5.2-4.2,9.4-9.4,9.4s-9.4-4.2-9.4-9.4c0-3.1,1.5-5.8,3.8-7.6v-40c0-3.2,2.6-5.8,5.8-5.8
		c1.6,0,3.1,0.7,4.1,1.7c1.1,1.1,1.7,2.5,1.7,4.1v40.3C-246.9,48.4-245.6,51-245.6,53.9z"/>
	<line class="st2" x1="-256.4" y1="30.5" x2="-255.3" y2="30.5"/>
	<line class="st2" x1="-256.4" y1="26.4" x2="-254.9" y2="26.4"/>
	<line class="st2" x1="-256.4" y1="22.1" x2="-254.4" y2="22.1"/>
</g>
</svg>
