<?xml version="1.0" encoding="utf-8"?>
<!-- Generator: Adobe Illustrator 19.1.0, SVG Export Plug-In . SVG Version: 6.00 Build 0)  -->
<svg version="1.1" id="Layer_1" xmlns="http://www.w3.org/2000/svg" xmlns:xlink="http://www.w3.org/1999/xlink" x="0px" y="0px"
	 viewBox="-339.3 0.5 64 64" style="enable-background:new -339.3 0.5 64 64;" xml:space="preserve">
<style type="text/css">
	.st0{fill:url(#SVGID_1_);}
	.st1{fill:none;stroke:url(#SVGID_2_);stroke-miterlimit:10;}
	.st2{fill:none;stroke:#FFFFFF;stroke-linecap:round;stroke-miterlimit:10;}
</style>
<g>
	
		<linearGradient id="SVGID_1_" gradientUnits="userSpaceOnUse" x1="-310.0328" y1="100.175" x2="-310.0328" y2="43.8641" gradientTransform="matrix(1 0 0 1 0 -40)">
		<stop  offset="0.1075" style="stop-color:#FF2671"/>
		<stop  offset="0.7957" style="stop-color:#55BEFF"/>
		<stop  offset="1" style="stop-color:#FFFFFF"/>
	</linearGradient>
	<path class="st0" d="M-303.7,53.8c0,3.5-2.9,6.3-6.3,6.3s-6.3-2.9-6.3-6.3c0-2.5,1.3-4.4,3.3-5.6V6.9c0-1.7,1.3-3.1,3.1-3.1
		c1,0,1.5,0.4,2.1,1c0.6,0.6,1,1.3,1,2.1v41.3C-305,49.2-303.7,51.3-303.7,53.8z"/>
	
		<linearGradient id="SVGID_2_" gradientUnits="userSpaceOnUse" x1="-300.3078" y1="72.5" x2="-319.7204" y2="72.5" gradientTransform="matrix(1 0 0 1 0 -40)">
		<stop  offset="0.1075" style="stop-color:#FF2671"/>
		<stop  offset="0.7957" style="stop-color:#55BEFF"/>
	</linearGradient>
	<path class="st1" d="M-300.8,54c0,5-4,9.2-9.2,9.2c-5,0-9.2-4-9.2-9.2c0-3.1,1.5-5.8,3.7-7.5v-39c0-3.1,2.5-5.8,5.8-5.8
		c1.5,0,3.1,0.8,4,1.7c1.2,1.2,1.7,2.5,1.7,4v39.4C-302.2,48.6-300.8,51.1-300.8,54z"/>
	<line class="st2" x1="-311.4" y1="31.2" x2="-310.4" y2="31.2"/>
	<line class="st2" x1="-311.4" y1="27.1" x2="-309.8" y2="27.1"/>
	<line class="st2" x1="-311.4" y1="22.9" x2="-309.5" y2="22.9"/>
</g>
</svg>
