<?xml version="1.0" encoding="utf-8"?>
<!-- Generator: Adobe Illustrator 19.1.0, SVG Export Plug-In . SVG Version: 6.00 Build 0)  -->
<svg version="1.1" id="Layer_1" xmlns="http://www.w3.org/2000/svg" xmlns:xlink="http://www.w3.org/1999/xlink" x="0px" y="0px"
	 viewBox="-309.2 1.3 64 64" style="enable-background:new -309.2 1.3 64 64;" xml:space="preserve">
<style type="text/css">
	.st0{fill:url(#SVGID_1_);}
	.st1{fill:url(#SVGID_2_);}
</style>
<g>
	
		<linearGradient id="SVGID_1_" gradientUnits="userSpaceOnUse" x1="-277.2" y1="62.7289" x2="-277.2" y2="4.9171" gradientTransform="matrix(1 0 0 1 0 3)">
		<stop  offset="0" style="stop-color:#53FFFF"/>
		<stop  offset="1.619560e-002" style="stop-color:#5DFFFF"/>
		<stop  offset="7.564002e-002" style="stop-color:#7CFFFF"/>
		<stop  offset="0.143" style="stop-color:#98FFFF"/>
		<stop  offset="0.2191" style="stop-color:#AEFFFF"/>
		<stop  offset="0.3079" style="stop-color:#BFFFFF"/>
		<stop  offset="0.4178" style="stop-color:#CAFFFF"/>
		<stop  offset="0.572" style="stop-color:#D1FFFF"/>
		<stop  offset="1" style="stop-color:#D3FFFF"/>
	</linearGradient>
	<path class="st0" d="M-252.1,7.6v41c0,9.2-3.6,16.7-8.1,16.7h-34c-4.5,0-8.1-7.2-8.1-16.7v-41"/>
	
		<linearGradient id="SVGID_2_" gradientUnits="userSpaceOnUse" x1="-277.4786" y1="58.8222" x2="-277.4786" y2="9.0955" gradientTransform="matrix(1 0 0 1 0 3)">
		<stop  offset="0.1075" style="stop-color:#592092"/>
		<stop  offset="0.7957" style="stop-color:#59F6FF"/>
		<stop  offset="1" style="stop-color:#FFFFFF"/>
	</linearGradient>
	<path class="st1" d="M-299.5,24.9c0-7,5.6-12.8,12.5-12.8c5,0,9.5,3.1,11.1,7.2c0.6,0.3,1.1,1.4,1.1,1.7c1.4,2,2.2,3.9,5.9,5.3
		c1.7,0.6,5.9,0,7.5-0.6c3.1-0.6,5.9,1.4,5.9,4.5v24c0,3.9-3.1,7.2-7,7.2h-30.1c-3.9,0-7-3.3-7-7.2V24.9L-299.5,24.9z"/>
</g>
</svg>
