<svg xmlns="http://www.w3.org/2000/svg" width="17" height="16" fill="none" viewBox="0 0 17 16">
  <path fill="#35E490" d="M5.662 6.133h-3.87C.788 6.133 0 5.333 0 4.467v-2.8C0 .733.788 0 1.792 0h3.87c1.003 0 1.791.733 1.791 1.667v2.8c0 .866-.788 1.666-1.791 1.666ZM5.662 16h-3.87C.788 16 0 15.267 0 14.333V8.667C0 7.733.788 7 1.792 7h3.87c1.003 0 1.791.733 1.791 1.667v5.666c0 .934-.788 1.667-1.791 1.667ZM14.405 9.867h-3.87c-1.003 0-1.792.733-1.792 1.666v2.8c0 .934.789 1.667 1.792 1.667h3.87c1.003 0 1.792-.733 1.792-1.667v-2.8c0-.866-.789-1.666-1.792-1.666ZM14.405 0h-3.87C9.532 0 8.743.733 8.743 1.667v5.666c0 .934.789 1.667 1.792 1.667h3.87c1.003 0 1.792-.733 1.792-1.667V1.667C16.197.733 15.408 0 14.405 0Z"/>
</svg>
