<svg xmlns="http://www.w3.org/2000/svg" width="18" height="16" fill="none" viewBox="0 0 18 16">
  <path fill="#35E490" d="M4.02 16H.508c-.215 0-.358-.133-.358-.333v-10c0-.2.143-.334.358-.334H4.02c.215 0 .358.134.358.334v10c0 .2-.215.333-.358.333ZM17.207 16h-3.512c-.215 0-.358-.133-.358-.333V3c0-.2.143-.333.358-.333h3.512c.215 0 .358.133.358.333v12.667c0 .2-.143.333-.358.333ZM10.542 16H7.03c-.215 0-.358-.133-.358-.333V.333c0-.2.143-.333.358-.333h3.512c.215 0 .358.133.358.333v15.334c0 .2-.143.333-.358.333Z"/>
</svg>
